<svg xmlns="http://www.w3.org/2000/svg" width="838.73" height="86.377" viewBox="0 0 838.73 86.377">
  <path id="Union_2" data-name="Union 2" d="M190.046,86.378V51.432H143.63V86.378H116.6V.145H143.63V31.8h46.416V.145h26.9V86.378Zm500.7,0-.13-.3-28.49-65.088c-.377-.85-.853-1.358-1.274-1.358-.384,0-.8.45-1.1,1.2l0,.005L632.354,86.375H608.509L645.119.142h29.234a12.31,12.31,0,0,1,6.3,1.3A9.475,9.475,0,0,1,684.541,6.2L720.2,86.375Zm-151.622,0c-9.633,0-17.555-.788-24.222-2.411-6.869-1.671-12.3-4.2-16.618-7.735a29.8,29.8,0,0,1-5.624-6.095,33.659,33.659,0,0,1-3.91-7.666c-2.029-5.583-3.014-12.221-3.014-20.294a59.45,59.45,0,0,1,.815-10.135,40.986,40.986,0,0,1,2.471-8.69,32.385,32.385,0,0,1,4.165-7.269,31.583,31.583,0,0,1,5.882-5.863C507.912,3.438,521.285.143,539.947.143L591.409,0V18.958H541.58a79.16,79.16,0,0,0-13.142.806,17.981,17.981,0,0,0-8.3,3.232,13.2,13.2,0,0,0-4.4,6.936A43.607,43.607,0,0,0,514.4,42.173c0,11.5,1.661,17.571,5.734,20.963,2.03,1.691,4.726,2.785,8.485,3.445a81.178,81.178,0,0,0,13.653.837H565.15a1.077,1.077,0,0,0,1.145-1.13V53.4a1.082,1.082,0,0,0-1.145-1.142H546.422V34.13h41.072a3.592,3.592,0,0,1,3.916,3.928V82.447a3.587,3.587,0,0,1-3.916,3.928Zm-223.392,0L287.1,20.988c-.374-.851-.846-1.359-1.265-1.359-.384,0-.8.45-1.1,1.2l0,.005-27.4,65.536H233.494L270.1.142h29.233a12.306,12.306,0,0,1,6.3,1.3A9.466,9.466,0,0,1,309.526,6.2l35.657,80.176Zm-263.425,0a97.073,97.073,0,0,1-23.6-2.447,48.914,48.914,0,0,1-9.031-3.18,34.588,34.588,0,0,1-7.266-4.594,30.04,30.04,0,0,1-5.544-6.079A33.9,33.9,0,0,1,3,62.462C.98,56.915,0,50.367,0,42.444A59.435,59.435,0,0,1,.807,32.379,41.707,41.707,0,0,1,3.25,23.7a33.2,33.2,0,0,1,4.107-7.305,31.966,31.966,0,0,1,5.785-5.93A37.942,37.942,0,0,1,20.6,5.9a52.28,52.28,0,0,1,9.141-3.219A95.376,95.376,0,0,1,53.119.142H92.676V19.1H55.319c-10.123,0-16.746,1.724-20.844,5.423a15.754,15.754,0,0,0-4.433,7.18,35.729,35.729,0,0,0-1.365,10.741c0,9.609,1.8,15.579,5.837,19.357a18.76,18.76,0,0,0,8.356,4.271,52.91,52.91,0,0,0,13.122,1.345H92.676V86.375Zm770.584,0c-4.7,0-7.545-1.034-10.885-3.952l-52.06-44.942a1.359,1.359,0,0,0-.823-.4c-.509,0-.549.744-.549.973V86.371H736.2V.14h14.2a23.317,23.317,0,0,1,6.687.695,13.6,13.6,0,0,1,5.284,3.141l52.221,44.937a1.385,1.385,0,0,0,.876.406c.533,0,.891-.564.891-1.4V.14h22.373v82.3a3.595,3.595,0,0,1-3.928,3.928Zm-375.017,0c-4.7,0-7.544-1.034-10.885-3.952l-52.06-44.942a1.36,1.36,0,0,0-.822-.4c-.51,0-.55.744-.55.973V86.371h-22.37V.14h14.2a23.281,23.281,0,0,1,6.683.695,13.652,13.652,0,0,1,5.287,3.141l52.209,44.936a1.413,1.413,0,0,0,.886.407c.535,0,.895-.564.895-1.4V.14h22.373v82.3a3.594,3.594,0,0,1-3.928,3.928Z" fill="#fff"/>
</svg>
